<?xml version="1.0" standalone="no"?>
<!DOCTYPE svg PUBLIC "-//W3C//DTD SVG 20010904//EN"
 "http://www.w3.org/TR/2001/REC-SVG-20010904/DTD/svg10.dtd">
<svg version="1.0" xmlns="http://www.w3.org/2000/svg"
 width="700.000000pt" height="700.000000pt" viewBox="0 0 700.000000 700.000000"
 preserveAspectRatio="xMidYMid meet">
<metadata>
Created by potrace 1.14, written by Peter Selinger 2001-2017
</metadata>
<g transform="translate(0.000000,700.000000) scale(0.100000,-0.100000)"
fill="#000000" stroke="none">
<path d="M3340 5820 c-2097 -4 -2935 -9 -2960 -17 -135 -42 -248 -130 -312
-241 -16 -29 -31 -58 -32 -65 -2 -7 -6 -19 -9 -27 -30 -70 -39 -418 -13 -468
26 -50 43 -52 382 -53 232 -1 314 -4 314 -12 0 -7 -5 -28 -10 -47 -6 -19 -13
-51 -16 -70 -3 -19 -11 -44 -17 -55 -6 -11 -9 -21 -8 -23 2 -1 -4 -35 -13 -75
-9 -39 -18 -81 -20 -92 -3 -11 -14 -60 -26 -110 -12 -49 -30 -128 -41 -175
-11 -47 -34 -141 -51 -210 -16 -69 -32 -136 -34 -149 -3 -14 -18 -79 -34 -145
-16 -67 -40 -170 -55 -231 -21 -94 -33 -142 -40 -165 -1 -3 -7 -32 -14 -65
-10 -48 -41 -174 -66 -275 -2 -8 -10 -46 -19 -85 -8 -38 -31 -135 -51 -215
-19 -80 -38 -158 -41 -175 -6 -37 -50 -225 -65 -280 -6 -22 -13 -51 -16 -65
-2 -14 -9 -43 -15 -65 -5 -22 -12 -51 -15 -65 -2 -14 -13 -58 -24 -99 -22 -85
-26 -290 -8 -400 28 -173 159 -327 334 -394 l60 -22 3070 -3 c2182 -2 3085 1
3123 9 179 37 339 192 386 375 24 94 22 330 -5 464 -11 58 -23 116 -25 130 -3
14 -43 219 -90 455 -46 237 -87 444 -90 460 -2 17 -30 156 -60 310 -30 154
-57 291 -60 305 -2 14 -6 34 -8 45 -4 20 -38 193 -131 665 -25 129 -59 302
-76 385 -16 82 -29 152 -29 155 0 4 117 6 259 6 283 1 300 4 321 60 13 33 13
336 0 405 -34 186 -207 361 -392 398 -81 16 -134 16 -3258 11z"/>
</g>
</svg>
