<?xml version="1.0" standalone="no"?>
<!DOCTYPE svg PUBLIC "-//W3C//DTD SVG 20010904//EN"
 "http://www.w3.org/TR/2001/REC-SVG-20010904/DTD/svg10.dtd">
<svg version="1.0" xmlns="http://www.w3.org/2000/svg"
 width="512.000000pt" height="512.000000pt" viewBox="0 0 512.000000 512.000000"
 preserveAspectRatio="xMidYMid meet">
<metadata>
Created by potrace 1.14, written by Peter Selinger 2001-2017
</metadata>
<g transform="translate(0.000000,512.000000) scale(0.100000,-0.100000)"
fill="#000000" stroke="none">
<path d="M300 4250 c-106 -19 -218 -110 -268 -218 -24 -52 -27 -70 -30 -209
l-4 -152 25 -25 c26 -26 28 -26 184 -27 87 0 193 0 236 1 42 1 77 -2 77 -5 0
-4 -7 -33 -14 -64 -8 -31 -17 -67 -20 -81 -4 -24 -89 -385 -122 -519 -9 -36
-17 -72 -19 -80 -2 -9 -22 -95 -45 -191 -23 -96 -43 -183 -45 -194 -3 -10 -13
-55 -24 -100 -33 -140 -61 -260 -65 -281 -2 -11 -18 -76 -34 -145 -40 -162
-92 -383 -97 -410 0 -3 -9 -38 -19 -78 -28 -109 -19 -304 17 -383 46 -103 141
-185 247 -212 45 -12 421 -14 2304 -13 l2251 1 65 32 c84 41 145 102 184 183
29 61 31 74 34 195 4 130 4 131 -93 620 -53 270 -114 582 -136 695 -22 113
-44 225 -50 250 -15 71 -149 762 -149 770 0 4 86 8 190 7 188 0 191 0 216 24
l26 24 -4 155 c-3 150 -4 157 -34 220 -40 82 -99 142 -183 183 l-66 32 -2250
1 c-1237 0 -2266 -3 -2285 -6z"/>
</g>
</svg>
