<svg xmlns="http://www.w3.org/2000/svg" xml:space="preserve" width="512" height="512" style="enable-background:new 0 0 510.909 510.909" viewBox="0 0 510.909 510.909"><path d="m510.769 370.403-45-229.561a7.5 7.5 0 0 0-7.36-6.057H61.5a7.501 7.501 0 0 0-7.301 5.783l-54 229.561a7.5 7.5 0 0 0 7.3 9.217h495.909a7.5 7.5 0 0 0 7.361-8.943z" style="fill:#e0e0e0"/><path d="m510.769 370.403-45-229.561a7.5 7.5 0 0 0-7.36-6.057h-37.341a7.5 7.5 0 0 1 7.36 6.057l44.983 229.474.009.047.008.041c.008.043.01.086.018.128.037.209.069.42.088.634.009.103.01.206.016.309.006.124.019.246.019.371v7.5h29.841a7.5 7.5 0 0 0 7.359-8.943z" style="fill:#c4c4c4"/><path d="m467.071 338.005-38.105-197.144-339.345-.271-45.725 197.144a7.497 7.497 0 0 0 7.306 9.194h408.506a7.5 7.5 0 0 0 7.363-8.923z" style="fill:#78777e"/><path d="m394.322 140.834 39.835 206.095h25.551a7.5 7.5 0 0 0 7.364-8.924l-38.105-197.144-34.645-.027z" style="fill:#67676b"/><path d="m399.294 305.296-25.461-131.725a7.5 7.5 0 0 0-7.364-6.077H149.532a7.5 7.5 0 0 0-7.306 5.806l-30.553 131.725a7.497 7.497 0 0 0 7.306 9.194h272.95a7.5 7.5 0 0 0 7.365-8.923z" style="fill:#66baea"/><path d="M366.379 314.219h25.551a7.5 7.5 0 0 0 7.364-8.924L373.833 173.57a7.5 7.5 0 0 0-7.364-6.077h-28.45l28.36 146.726z" style="fill:#3aaae4"/><path d="m399.294 305.296-6.712-34.727a7.5 7.5 0 0 0-3.438-4.967l-43.435-26.689c-10.504-6.455-23.535-6.422-34.007.084l-49.837 30.958a7.5 7.5 0 0 0-.592 12.334l39.834 30.393a7.5 7.5 0 0 0 4.549 1.538h86.274a7.5 7.5 0 0 0 7.364-8.924z" style="fill:#50c436"/><path d="M397.714 311.493a7.499 7.499 0 0 0 1.579-6.197l-6.712-34.727a7.5 7.5 0 0 0-3.438-4.967l-36.496-22.425 13.731 71.042h25.551a7.5 7.5 0 0 0 5.785-2.726z" style="fill:#48a92d"/><path d="M261.695 192.231c-12.711 0-23.052 10.341-23.052 23.052 0 12.71 10.341 23.051 23.052 23.051s23.051-10.341 23.051-23.051c0-12.711-10.341-23.052-23.051-23.052z" style="fill:#ffdb56"/><path d="M261.695 192.231a22.903 22.903 0 0 0-11.526 3.101c6.883 3.992 11.526 11.437 11.526 19.951 0 8.513-4.643 15.958-11.526 19.95a22.903 22.903 0 0 0 11.526 3.101c12.711 0 23.051-10.341 23.051-23.051 0-12.711-10.341-23.052-23.051-23.052z" style="fill:#ffc41f"/><path d="M473.409 86.063H37.5c-20.678 0-37.5 16.822-37.5 37.5v18.722a7.5 7.5 0 0 0 7.5 7.5h495.909a7.5 7.5 0 0 0 7.5-7.5v-18.722c0-20.678-16.822-37.5-37.5-37.5z" style="fill:#c4c4c4"/><path d="M473.409 86.063h-35.031c20.678 0 37.5 16.822 37.5 37.5v18.722a7.5 7.5 0 0 1-7.5 7.5h35.031a7.5 7.5 0 0 0 7.5-7.5v-18.722c0-20.678-16.822-37.5-37.5-37.5z" style="fill:#aaa"/><path d="M289.349 113.723h-68.074c-18.191 0-32.464 17.094-27.601 36.062H316.95c4.863-18.968-9.411-36.062-27.601-36.062z" style="fill:#8e8e8e"/><path d="M233.883 242.524c-11.451-8.735-26.976-8.92-38.631-.458l-80.679 58.584a49.26 49.26 0 0 0-2.309 1.827l-.591 2.547a7.497 7.497 0 0 0 7.306 9.194h210.389l-95.485-71.694z" style="fill:#80d862"/><path d="M503.409 364.346H7.5a7.5 7.5 0 0 0-7.5 7.5v15.5c0 20.678 16.822 37.5 37.5 37.5h435.909c20.678 0 37.5-16.822 37.5-37.5v-15.5a7.5 7.5 0 0 0-7.5-7.5z" style="fill:#c4c4c4"/><path d="M503.409 364.346h-31.168l1.17 5.969.009.047.008.041c.008.043.01.086.018.128.037.209.069.42.088.634.009.103.01.206.016.309.006.124.019.246.019.371v15.5c0 20.678-16.822 37.5-37.5 37.5h37.341c20.678 0 37.5-16.822 37.5-37.5v-15.5a7.501 7.501 0 0 0-7.501-7.499z" style="fill:#aaa"/></svg>